<svg width="60" height="60" viewBox="0 0 60 60" fill="none" xmlns="http://www.w3.org/2000/svg">
<path d="M51.6211 46.582C52.9102 47.207 54.0625 47.9883 55.0781 48.9258C56.0938 49.8633 56.9727 50.918 57.7148 52.0898C58.457 53.2617 59.0234 54.5117 59.4141 55.8398C59.8047 57.168 60 58.5547 60 60H56.25C56.25 58.457 55.957 57.002 55.3711 55.6348C54.7852 54.2676 53.9746 53.0762 52.9395 52.0605C51.9043 51.0449 50.7129 50.2441 49.3652 49.6582C48.0176 49.0723 46.5625 48.7695 45 48.75C43.457 48.75 42.002 49.043 40.6348 49.6289C39.2676 50.2148 38.0762 51.0254 37.0605 52.0605C36.0449 53.0957 35.2441 54.2871 34.6582 55.6348C34.0723 56.9824 33.7695 58.4375 33.75 60H30C30 58.5742 30.1953 57.1973 30.5859 55.8691C30.9766 54.541 31.5332 53.291 32.2559 52.1191C32.9785 50.9473 33.8574 49.8926 34.8926 48.9551C35.9277 48.0176 37.0898 47.2266 38.3789 46.582C36.9141 45.5273 35.7812 44.209 34.9805 42.627C34.1797 41.0449 33.7695 39.3359 33.75 37.5C33.75 35.957 34.043 34.502 34.6289 33.1348C35.2148 31.7676 36.0156 30.5762 37.0312 29.5605C38.0469 28.5449 39.2383 27.7344 40.6055 27.1289C41.9727 26.5234 43.4375 26.2305 45 26.25C46.543 26.25 47.998 26.543 49.3652 27.1289C50.7324 27.7148 51.9238 28.5156 52.9395 29.5312C53.9551 30.5469 54.7656 31.748 55.3711 33.1348C55.9766 34.5215 56.2695 35.9766 56.25 37.5C56.25 39.3164 55.8496 41.0156 55.0488 42.5977C54.248 44.1797 53.1055 45.5078 51.6211 46.582ZM45 45C46.0352 45 47.002 44.8047 47.9004 44.4141C48.7988 44.0234 49.5996 43.4863 50.3027 42.8027C51.0059 42.1191 51.543 41.3281 51.9141 40.4297C52.2852 39.5312 52.4805 38.5547 52.5 37.5C52.5 36.4648 52.3047 35.498 51.9141 34.5996C51.5234 33.7012 50.9863 32.9004 50.3027 32.1973C49.6191 31.4941 48.8281 30.957 47.9297 30.5859C47.0312 30.2148 46.0547 30.0195 45 30C43.9648 30 42.998 30.1953 42.0996 30.5859C41.2012 30.9766 40.4004 31.5137 39.6973 32.1973C38.9941 32.8809 38.457 33.6719 38.0859 34.5703C37.7148 35.4688 37.5195 36.4453 37.5 37.5C37.5 38.5352 37.6953 39.502 38.0859 40.4004C38.4766 41.2988 39.0137 42.0996 39.6973 42.8027C40.3809 43.5059 41.1719 44.043 42.0703 44.4141C42.9688 44.7852 43.9453 44.9805 45 45ZM60 3.75V33.75C60 32.8125 59.9121 31.9922 59.7363 31.2891C59.5605 30.5859 59.3164 29.9316 59.0039 29.3262C58.6914 28.7207 58.3008 28.1348 57.832 27.5684C57.3633 27.002 56.8359 26.3867 56.25 25.7227V7.5H3.75V41.25H11.25V49.0723L19.0723 41.25H30.498C30.6543 41.9141 30.8594 42.5586 31.1133 43.1836C31.3672 43.8086 31.6699 44.4141 32.0215 45H20.625L7.5 58.125V45H0V3.75H60Z" fill="#252B48"/>
</svg>
