<svg width="261" height="242" viewBox="0 0 261 242" fill="none" xmlns="http://www.w3.org/2000/svg">
<g filter="url(#filter0_ddddd_14_501)">
<rect x="14" y="14" width="140" height="122" rx="10" fill="#F9EAF7"/>
<rect x="11.5" y="11.5" width="145" height="127" rx="22.5" stroke="#F9EAF7" stroke-width="5"/>
</g>
<path d="M96.7917 48.3398C103.951 48.3778 107.829 48.685 110.357 51.117C113.25 53.9005 113.25 58.3782 113.25 67.3335V86.3335C113.25 95.292 113.25 99.7697 110.357 102.553C107.467 105.334 102.809 105.334 93.5 105.334H73.75C64.4412 105.334 59.7835 105.334 56.8934 102.553C54 99.7665 54 95.292 54 86.3335V67.3335C54 58.3782 54 53.9005 56.8934 51.117C59.4214 48.685 63.299 48.3778 70.4583 48.3398" stroke="#252B48" stroke-width="4"/>
<path d="M70.4587 79.9998H96.792M67.167 68.9165H100.084M73.7503 91.0832H93.5003" stroke="#252B48" stroke-width="4" stroke-linecap="round"/>
<path d="M70.458 46.75C70.458 45.4902 70.9782 44.282 71.9042 43.3912C72.8301 42.5004 74.086 42 75.3955 42H91.8538C93.1633 42 94.4192 42.5004 95.3452 43.3912C96.2711 44.282 96.7913 45.4902 96.7913 46.75V49.9167C96.7913 51.1764 96.2711 52.3846 95.3452 53.2754C94.4192 54.1662 93.1633 54.6667 91.8538 54.6667H75.3955C74.086 54.6667 72.8301 54.1662 71.9042 53.2754C70.9782 52.3846 70.458 51.1764 70.458 49.9167V46.75Z" stroke="#252B48" stroke-width="4"/>
<defs>
<filter id="filter0_ddddd_14_501" x="0" y="0" width="261" height="242" filterUnits="userSpaceOnUse" color-interpolation-filters="sRGB">
<feFlood flood-opacity="0" result="BackgroundImageFix"/>
<feColorMatrix in="SourceAlpha" type="matrix" values="0 0 0 0 0 0 0 0 0 0 0 0 0 0 0 0 0 0 127 0" result="hardAlpha"/>
<feOffset/>
<feColorMatrix type="matrix" values="0 0 0 0 0 0 0 0 0 0 0 0 0 0 0 0 0 0 0.1 0"/>
<feBlend mode="normal" in2="BackgroundImageFix" result="effect1_dropShadow_14_501"/>
<feColorMatrix in="SourceAlpha" type="matrix" values="0 0 0 0 0 0 0 0 0 0 0 0 0 0 0 0 0 0 127 0" result="hardAlpha"/>
<feOffset dx="4" dy="4"/>
<feGaussianBlur stdDeviation="6.5"/>
<feColorMatrix type="matrix" values="0 0 0 0 0 0 0 0 0 0 0 0 0 0 0 0 0 0 0.1 0"/>
<feBlend mode="normal" in2="effect1_dropShadow_14_501" result="effect2_dropShadow_14_501"/>
<feColorMatrix in="SourceAlpha" type="matrix" values="0 0 0 0 0 0 0 0 0 0 0 0 0 0 0 0 0 0 127 0" result="hardAlpha"/>
<feOffset dx="16" dy="16"/>
<feGaussianBlur stdDeviation="11.5"/>
<feColorMatrix type="matrix" values="0 0 0 0 0 0 0 0 0 0 0 0 0 0 0 0 0 0 0.09 0"/>
<feBlend mode="normal" in2="effect2_dropShadow_14_501" result="effect3_dropShadow_14_501"/>
<feColorMatrix in="SourceAlpha" type="matrix" values="0 0 0 0 0 0 0 0 0 0 0 0 0 0 0 0 0 0 127 0" result="hardAlpha"/>
<feOffset dx="37" dy="36"/>
<feGaussianBlur stdDeviation="15.5"/>
<feColorMatrix type="matrix" values="0 0 0 0 0 0 0 0 0 0 0 0 0 0 0 0 0 0 0.05 0"/>
<feBlend mode="normal" in2="effect3_dropShadow_14_501" result="effect4_dropShadow_14_501"/>
<feColorMatrix in="SourceAlpha" type="matrix" values="0 0 0 0 0 0 0 0 0 0 0 0 0 0 0 0 0 0 127 0" result="hardAlpha"/>
<feOffset dx="65" dy="64"/>
<feGaussianBlur stdDeviation="18.5"/>
<feColorMatrix type="matrix" values="0 0 0 0 0 0 0 0 0 0 0 0 0 0 0 0 0 0 0.01 0"/>
<feBlend mode="normal" in2="effect4_dropShadow_14_501" result="effect5_dropShadow_14_501"/>
<feBlend mode="normal" in="SourceGraphic" in2="effect5_dropShadow_14_501" result="shape"/>
</filter>
</defs>
</svg>
