<svg width="60" height="60" viewBox="0 0 60 60" fill="none" xmlns="http://www.w3.org/2000/svg">
<path opacity="0.2" d="M56.8985 19.9036L48.0004 28.8012L31.2002 12.0019L40.0983 3.10422C40.5483 2.65449 41.1586 2.40186 41.7948 2.40186C42.4311 2.40186 43.0413 2.65449 43.4913 3.10422L56.8985 16.5017C57.1225 16.7247 57.3003 16.9898 57.4216 17.2817C57.543 17.5736 57.6054 17.8865 57.6054 18.2026C57.6054 18.5187 57.543 18.8317 57.4216 19.1236C57.3003 19.4155 57.1225 19.6806 56.8985 19.9036Z" fill="#252B48"/>
<path d="M58.5937 14.8127L45.1896 1.40622C44.7438 0.960401 44.2146 0.606751 43.6322 0.365469C43.0497 0.124187 42.4255 0 41.795 0C41.1646 0 40.5403 0.124187 39.9579 0.365469C39.3754 0.606751 38.8462 0.960401 38.4005 1.40622L1.40704 38.4008C0.959374 38.8449 0.604452 39.3735 0.362906 39.956C0.12136 40.5385 -0.00199034 41.1631 2.42851e-05 41.7937V55.2002C2.42851e-05 56.4732 0.505743 57.694 1.40593 58.5941C2.30611 59.4943 3.52703 60 4.80008 60H18.2072C18.8378 60.002 19.4625 59.8786 20.045 59.6371C20.6275 59.3956 21.1562 59.0407 21.6003 58.593L58.5937 21.6014C59.0395 21.1557 59.3932 20.6266 59.6345 20.0441C59.8758 19.4617 60 18.8375 60 18.2071C60 17.5767 59.8758 16.9524 59.6345 16.37C59.3932 15.7876 59.0395 15.2584 58.5937 14.8127ZM5.79309 40.8007L31.2004 15.3947L36.2074 20.4015L10.8001 45.8045L5.79309 40.8007ZM4.80008 46.5935L13.4072 55.2002H4.80008V46.5935ZM19.2002 54.2072L14.1932 49.2004L39.6005 23.7944L44.6075 28.8012L19.2002 54.2072ZM48.0006 25.4083L34.5934 12.0018L41.7935 4.80209L55.2007 18.2056L48.0006 25.4083Z" fill="#252B48"/>
</svg>
