<svg width="423" height="68" viewBox="0 0 423 68" fill="none" xmlns="http://www.w3.org/2000/svg">
<g filter="url(#filter0_d_15_164)">
<path d="M4 15C4 6.71573 10.7157 0 19 0H404C412.284 0 419 6.71573 419 15V45C419 53.2843 412.284 60 404 60H19C10.7157 60 4 53.2843 4 45V15Z" fill="#F3CCFF"/>
<path d="M6 15C6 7.8203 11.8203 2 19 2H404C411.18 2 417 7.8203 417 15V45C417 52.1797 411.18 58 404 58H19C11.8203 58 6 52.1797 6 45V15Z" stroke="black" stroke-width="4"/>
</g>
<defs>
<filter id="filter0_d_15_164" x="0" y="0" width="423" height="68" filterUnits="userSpaceOnUse" color-interpolation-filters="sRGB">
<feFlood flood-opacity="0" result="BackgroundImageFix"/>
<feColorMatrix in="SourceAlpha" type="matrix" values="0 0 0 0 0 0 0 0 0 0 0 0 0 0 0 0 0 0 127 0" result="hardAlpha"/>
<feOffset dy="4"/>
<feGaussianBlur stdDeviation="2"/>
<feComposite in2="hardAlpha" operator="out"/>
<feColorMatrix type="matrix" values="0 0 0 0 0 0 0 0 0 0 0 0 0 0 0 0 0 0 0.25 0"/>
<feBlend mode="normal" in2="BackgroundImageFix" result="effect1_dropShadow_15_164"/>
<feBlend mode="normal" in="SourceGraphic" in2="effect1_dropShadow_15_164" result="shape"/>
</filter>
</defs>
</svg>
