<svg width="261" height="242" viewBox="0 0 261 242" fill="none" xmlns="http://www.w3.org/2000/svg">
<g filter="url(#filter0_ddddd_15_59)">
<rect x="14" y="14" width="140" height="122" rx="10" fill="#F9EAF7"/>
<rect x="11.5" y="11.5" width="145" height="127" rx="22.5" stroke="#F9EAF7" stroke-width="5"/>
</g>
<path d="M96.7917 49.3398C103.951 49.3778 107.829 49.685 110.357 52.117C113.25 54.9005 113.25 59.3782 113.25 68.3335V87.3335C113.25 96.292 113.25 100.77 110.357 103.553C107.467 106.334 102.809 106.334 93.5 106.334H73.75C64.4412 106.334 59.7835 106.334 56.8934 103.553C54 100.767 54 96.292 54 87.3335V68.3335C54 59.3782 54 54.9005 56.8934 52.117C59.4214 49.685 63.299 49.3778 70.4583 49.3398" stroke="#252B48" stroke-width="4"/>
<path d="M70.4587 80.9998H96.792M67.167 69.9165H100.084M73.7503 92.0832H93.5003" stroke="#252B48" stroke-width="4" stroke-linecap="round"/>
<path d="M70.458 47.75C70.458 46.4902 70.9782 45.282 71.9042 44.3912C72.8301 43.5004 74.086 43 75.3955 43H91.8538C93.1633 43 94.4192 43.5004 95.3452 44.3912C96.2711 45.282 96.7913 46.4902 96.7913 47.75V50.9167C96.7913 52.1764 96.2711 53.3846 95.3452 54.2754C94.4192 55.1662 93.1633 55.6667 91.8538 55.6667H75.3955C74.086 55.6667 72.8301 55.1662 71.9042 54.2754C70.9782 53.3846 70.458 52.1764 70.458 50.9167V47.75Z" stroke="#252B48" stroke-width="4"/>
<defs>
<filter id="filter0_ddddd_15_59" x="0" y="0" width="261" height="242" filterUnits="userSpaceOnUse" color-interpolation-filters="sRGB">
<feFlood flood-opacity="0" result="BackgroundImageFix"/>
<feColorMatrix in="SourceAlpha" type="matrix" values="0 0 0 0 0 0 0 0 0 0 0 0 0 0 0 0 0 0 127 0" result="hardAlpha"/>
<feOffset/>
<feColorMatrix type="matrix" values="0 0 0 0 0 0 0 0 0 0 0 0 0 0 0 0 0 0 0.1 0"/>
<feBlend mode="normal" in2="BackgroundImageFix" result="effect1_dropShadow_15_59"/>
<feColorMatrix in="SourceAlpha" type="matrix" values="0 0 0 0 0 0 0 0 0 0 0 0 0 0 0 0 0 0 127 0" result="hardAlpha"/>
<feOffset dx="4" dy="4"/>
<feGaussianBlur stdDeviation="6.5"/>
<feColorMatrix type="matrix" values="0 0 0 0 0 0 0 0 0 0 0 0 0 0 0 0 0 0 0.1 0"/>
<feBlend mode="normal" in2="effect1_dropShadow_15_59" result="effect2_dropShadow_15_59"/>
<feColorMatrix in="SourceAlpha" type="matrix" values="0 0 0 0 0 0 0 0 0 0 0 0 0 0 0 0 0 0 127 0" result="hardAlpha"/>
<feOffset dx="16" dy="16"/>
<feGaussianBlur stdDeviation="11.5"/>
<feColorMatrix type="matrix" values="0 0 0 0 0 0 0 0 0 0 0 0 0 0 0 0 0 0 0.09 0"/>
<feBlend mode="normal" in2="effect2_dropShadow_15_59" result="effect3_dropShadow_15_59"/>
<feColorMatrix in="SourceAlpha" type="matrix" values="0 0 0 0 0 0 0 0 0 0 0 0 0 0 0 0 0 0 127 0" result="hardAlpha"/>
<feOffset dx="37" dy="36"/>
<feGaussianBlur stdDeviation="15.5"/>
<feColorMatrix type="matrix" values="0 0 0 0 0 0 0 0 0 0 0 0 0 0 0 0 0 0 0.05 0"/>
<feBlend mode="normal" in2="effect3_dropShadow_15_59" result="effect4_dropShadow_15_59"/>
<feColorMatrix in="SourceAlpha" type="matrix" values="0 0 0 0 0 0 0 0 0 0 0 0 0 0 0 0 0 0 127 0" result="hardAlpha"/>
<feOffset dx="65" dy="64"/>
<feGaussianBlur stdDeviation="18.5"/>
<feColorMatrix type="matrix" values="0 0 0 0 0 0 0 0 0 0 0 0 0 0 0 0 0 0 0.01 0"/>
<feBlend mode="normal" in2="effect4_dropShadow_15_59" result="effect5_dropShadow_15_59"/>
<feBlend mode="normal" in="SourceGraphic" in2="effect5_dropShadow_15_59" result="shape"/>
</filter>
</defs>
</svg>
