<svg width="19" height="21" viewBox="0 0 19 21" fill="none" xmlns="http://www.w3.org/2000/svg">
<path d="M14.4174 0.982471C16.1446 1.87162 17.4893 3.35867 18.2007 5.16625C18.9122 6.97383 18.9419 8.9785 18.2841 10.8063L18.665 14.9827C18.69 15.2576 18.5045 15.5524 18.1318 15.527L16.0065 15.3755L14.6655 17.9807C14.4227 18.4523 14.0026 18.8082 13.4974 18.97C12.9923 19.1318 12.4435 19.0863 11.9719 18.8436L10.1946 17.9287L8.82069 20.5956L0.818554 16.4767L2.50916 13.1922C3.0492 12.1431 3.17275 10.9504 2.91477 9.68389C2.61541 8.20655 2.73953 6.67468 3.27282 5.26479C3.80612 3.85491 4.72689 2.62438 5.92904 1.71498C7.1312 0.805585 8.56582 0.254331 10.0676 0.124733C11.5694 -0.00486452 13.0773 0.292467 14.4174 0.982471ZM11.3087 5.86394C11.1612 5.42943 10.849 5.07022 10.4392 4.86368C10.0295 4.65715 9.55498 4.61982 9.11797 4.75972C8.68095 4.89963 8.31637 5.20558 8.10275 5.61168C7.88913 6.01779 7.84355 6.49155 7.97585 6.93093L9.27194 10.9789L13.3195 9.68148C13.542 9.61439 13.7489 9.50367 13.9281 9.35578C14.1073 9.20788 14.2553 9.02577 14.3634 8.82007C14.4715 8.61437 14.5375 8.38921 14.5577 8.15771C14.5778 7.92621 14.5517 7.69302 14.4807 7.47174C14.4098 7.25046 14.2955 7.04553 14.1445 6.86889C13.9935 6.69226 13.8089 6.54746 13.6013 6.44296C13.3938 6.33845 13.1675 6.27632 12.9357 6.2602C12.7039 6.24408 12.4712 6.27429 12.2512 6.34906L11.5374 6.57774L11.3087 5.86394Z" fill="#87CEA9"/>
</svg>
