<svg width="20" height="20" viewBox="0 0 20 20" fill="none" xmlns="http://www.w3.org/2000/svg">
<path d="M17.3504 2.36727C18.7909 3.67052 19.7082 5.45327 19.9311 7.383C20.154 9.31272 19.6673 11.2576 18.5618 12.855L17.8563 16.9889C17.8098 17.261 17.5548 17.4982 17.2011 17.3778L15.1861 16.6851L13.2206 18.858C12.8647 19.2514 12.3672 19.4873 11.8374 19.5138C11.3077 19.5404 10.7891 19.3554 10.3957 18.9995L8.91324 17.6585L6.89997 19.8827L0.225564 13.8451L2.70365 11.1056C3.49525 10.2305 3.92124 9.10967 3.99749 7.81942C4.08796 6.31476 4.60168 4.86628 5.47948 3.64086C6.35728 2.41544 7.56343 1.46295 8.95895 0.893144C10.3545 0.323334 11.8826 0.159389 13.3672 0.420196C14.8519 0.681003 16.2326 1.35595 17.3504 2.36727ZM13.0913 6.28557C13.0605 5.82775 12.8511 5.40035 12.5082 5.09542C12.1653 4.7905 11.7163 4.63245 11.258 4.65531C10.7997 4.67818 10.3688 4.88013 10.0579 5.21767C9.74709 5.55522 9.58127 6.00134 9.59617 6.45996L9.80813 10.7051L14.0532 10.4917C14.2854 10.4841 14.5138 10.4303 14.7251 10.3334C14.9363 10.2366 15.1261 10.0986 15.2834 9.92761C15.4408 9.75661 15.5625 9.55599 15.6415 9.33745C15.7205 9.11891 15.7551 8.88683 15.7434 8.65475C15.7318 8.42267 15.674 8.19524 15.5735 7.98573C15.473 7.77622 15.3318 7.58882 15.158 7.43448C14.9843 7.28013 14.7816 7.16192 14.5618 7.08675C14.3419 7.01159 14.1092 6.98096 13.8774 6.99666L13.1288 7.03417L13.0913 6.28557Z" fill="#87CEA9"/>
</svg>
