<svg width="18" height="21" viewBox="0 0 18 21" fill="none" xmlns="http://www.w3.org/2000/svg">
<path d="M10.1708 0.415712C12.0555 0.886296 13.7047 2.0264 14.8107 3.62335C15.9167 5.22031 16.404 7.16506 16.1818 9.09487L17.5077 13.0734C17.5949 13.3353 17.4817 13.6647 17.1131 13.7253L15.0095 14.0639L14.2999 16.9066C14.1714 17.4213 13.8438 17.8638 13.389 18.1369C12.9343 18.41 12.3897 18.4912 11.875 18.3627L9.93555 17.8786L9.20802 20.7891L0.475953 18.6094L1.37059 15.0253C1.65637 13.8805 1.50387 12.6911 0.963078 11.5172C0.333775 10.1475 0.104258 8.62784 0.300971 7.13335C0.497684 5.63887 1.11262 4.23037 2.07493 3.07014C3.03725 1.90991 4.30777 1.04516 5.74012 0.575529C7.17247 0.1059 8.70836 0.0504999 10.1708 0.415712ZM8.26088 5.87879C8.01794 5.48952 7.63182 5.21124 7.18569 5.10389C6.73956 4.99654 6.26912 5.06871 5.87569 5.30486C5.48225 5.541 5.19731 5.92223 5.08222 6.36643C4.96714 6.81062 5.03112 7.28225 5.2604 7.67973L7.44793 11.324L11.0915 9.13526C11.2927 9.01908 11.4688 8.86397 11.6095 8.67901C11.7501 8.49404 11.8525 8.28291 11.9107 8.05794C11.9689 7.83298 11.9817 7.59867 11.9484 7.3687C11.915 7.13873 11.8362 6.9177 11.7166 6.71851C11.5969 6.51932 11.4388 6.34596 11.2514 6.20854C11.064 6.07112 10.8511 5.97239 10.6252 5.91812C10.3992 5.86385 10.1647 5.85512 9.93539 5.89244C9.70603 5.92977 9.48641 6.01239 9.28933 6.1355L8.64675 6.52137L8.26088 5.87879Z" fill="#87CEA9"/>
</svg>
