<svg width="21" height="20" viewBox="0 0 21 20" fill="none" xmlns="http://www.w3.org/2000/svg">
<path d="M17.4184 2.01038C18.9048 3.261 19.8856 5.00963 20.1777 6.9301C20.4698 8.85057 20.0534 10.8117 19.0061 12.4478L18.4496 16.6044C18.4129 16.8779 18.1665 17.1242 17.8088 17.0166L15.7702 16.3968L13.884 18.6389C13.5426 19.0448 13.0538 19.2985 12.5254 19.344C11.9969 19.3896 11.472 19.2234 11.0661 18.8819L9.53636 17.595L7.60434 19.8901L0.717221 14.0963L3.09523 11.2696C3.85486 10.3666 4.24028 9.23115 4.27011 7.939C4.30643 6.43206 4.76776 4.96604 5.60094 3.70986C6.43412 2.45368 7.60525 1.45845 8.97939 0.838849C10.3535 0.219243 11.8748 0.000473187 13.3678 0.207745C14.8609 0.415016 16.265 1.0399 17.4184 2.01038ZM13.3029 6.07925C13.2556 5.62283 13.031 5.20323 12.6774 4.91083C12.3237 4.61843 11.8694 4.47662 11.4122 4.51594C10.9551 4.55527 10.5316 4.77258 10.2331 5.12108C9.93461 5.46958 9.78492 5.92137 9.8163 6.37916L10.1807 10.6139L14.4154 10.2481C14.6472 10.2321 14.8735 10.1701 15.0811 10.0657C15.2887 9.96136 15.4735 9.81668 15.6246 9.64013C15.7756 9.46359 15.8901 9.25872 15.9611 9.03748C16.0322 8.81625 16.0585 8.58307 16.0385 8.35156C16.0185 8.12005 15.9526 7.89485 15.8446 7.68908C15.7366 7.48332 15.5888 7.30112 15.4096 7.15312C15.2305 7.00512 15.0236 6.89427 14.8012 6.82706C14.5788 6.75984 14.3452 6.7376 14.114 6.76162L13.3673 6.82601L13.3029 6.07925Z" fill="#87CEA9"/>
</svg>
