<svg width="21" height="20" viewBox="0 0 21 20" fill="none" xmlns="http://www.w3.org/2000/svg">
<path d="M17.2481 1.89936C18.7596 3.11958 19.7756 4.84797 20.1066 6.76212C20.4376 8.67627 20.061 10.6455 19.0471 12.3024L18.575 16.4694C18.5438 16.7437 18.3025 16.9949 17.9427 16.8946L15.892 16.3162L14.0516 18.5961C13.7185 19.0089 13.235 19.2724 12.7075 19.3286C12.1801 19.3849 11.6519 19.2294 11.2392 18.8962L9.68367 17.6406L7.79859 19.9744L0.795415 14.3214L3.11563 11.447C3.85679 10.5288 4.21912 9.38581 4.22274 8.09332C4.2285 6.58596 4.66001 5.11089 5.46755 3.83808C6.27509 2.56526 7.4258 1.54649 8.7871 0.899157C10.1484 0.251819 11.6649 0.00225154 13.1618 0.17921C14.6588 0.356168 16.0753 0.952451 17.2481 1.89936ZM13.216 6.05083C13.1595 5.59546 12.9264 5.1805 12.5669 4.89533C12.2074 4.61015 11.7503 4.47758 11.294 4.52617C10.8377 4.57476 10.4188 4.80061 10.1274 5.15509C9.83601 5.50957 9.69551 5.96431 9.73616 6.42136L10.1864 10.6479L14.4127 10.1963C14.6442 10.1756 14.8692 10.109 15.0746 10.0004C15.2801 9.89187 15.4619 9.74347 15.6093 9.5639C15.7568 9.38433 15.8671 9.17719 15.9336 8.95456C16.0002 8.73192 16.0218 8.49826 15.9971 8.26721C15.9724 8.03615 15.9019 7.81233 15.7898 7.60879C15.6777 7.40526 15.5261 7.2261 15.344 7.08176C15.1619 6.93742 14.9529 6.83079 14.7291 6.7681C14.5054 6.70541 14.2714 6.6879 14.0408 6.71661L13.2955 6.79613L13.216 6.05083Z" fill="#87CEA9"/>
</svg>
