<svg width="18" height="21" viewBox="0 0 18 21" fill="none" xmlns="http://www.w3.org/2000/svg">
<path d="M9.10594 0.331844C11.0299 0.599971 12.7906 1.55881 14.0597 3.02951C15.3288 4.50022 16.0196 6.38235 16.0032 8.32484L17.7434 12.1404C17.8578 12.3916 17.7802 12.7311 17.4201 12.8304L15.3642 13.3901L14.96 16.2921C14.8868 16.8175 14.6079 17.2922 14.1847 17.612C13.7615 17.9317 13.2286 18.0702 12.7032 17.9971L10.7233 17.7213L10.3084 20.6924L1.39449 19.4508L1.90413 15.7921C2.06692 14.6234 1.7892 13.4569 1.127 12.3469C0.356032 11.0516 -0.0332969 9.56489 0.00387115 8.05797C0.0410392 6.55106 0.503192 5.0853 1.33708 3.82959C2.17097 2.57388 3.34266 1.57931 4.71715 0.960478C6.09164 0.341646 7.613 0.123732 9.10594 0.331844ZM7.78593 5.96661C7.50308 5.60529 7.08964 5.36952 6.63464 5.31007C6.17965 5.25062 5.71951 5.37226 5.35332 5.64879C4.98714 5.92531 4.74422 6.33459 4.67687 6.78849C4.60953 7.24238 4.72315 7.70457 4.99327 8.0755L7.55482 11.4673L10.9458 8.90466C11.1336 8.76779 11.2922 8.59489 11.4125 8.39606C11.5327 8.19722 11.6122 7.97643 11.6462 7.74656C11.6802 7.51669 11.6681 7.28235 11.6106 7.05721C11.5531 6.83207 11.4513 6.62064 11.3112 6.43525C11.1711 6.24987 10.9954 6.09425 10.7945 5.97747C10.5936 5.86069 10.3715 5.78509 10.1411 5.75508C9.91064 5.72507 9.67655 5.74125 9.45244 5.80267C9.22834 5.8641 9.01871 5.96955 8.83579 6.11285L8.23774 6.56467L7.78593 5.96661Z" fill="#87CEA9"/>
</svg>
