<svg width="20" height="22" viewBox="0 0 20 22" fill="none" xmlns="http://www.w3.org/2000/svg">
<path d="M3.60723 1.79082C5.21151 0.695454 7.15947 0.221066 9.08775 0.456143C11.016 0.691221 12.793 1.61971 14.0871 3.06842L17.9409 4.72216C18.1946 4.83111 18.3655 5.13459 18.1657 5.45024L17.0205 7.24702L18.6728 9.66668C18.9719 10.1047 19.0848 10.6436 18.9866 11.1649C18.8883 11.6862 18.5871 12.1471 18.149 12.4462L16.4982 13.5735L18.1892 16.0515L10.7568 21.1269L8.67361 18.0763C8.00817 17.1018 7.0182 16.4253 5.78167 16.0491C4.34001 15.6089 3.05205 14.7703 2.0662 13.63C1.08035 12.4897 0.43672 11.0941 0.209468 9.60392C-0.0177847 8.11378 0.180589 6.58975 0.781733 5.20743C1.38288 3.82511 2.36233 2.64075 3.60723 1.79082ZM6.41949 6.84891C5.96717 6.77169 5.50262 6.87522 5.12589 7.1372C4.74917 7.39917 4.4904 7.79863 4.40534 8.24954C4.32027 8.70045 4.41571 9.16672 4.6711 9.54795C4.92649 9.92917 5.32139 10.1948 5.77075 10.2877L9.94753 11.0755L10.7339 6.89849C10.7809 6.67091 10.782 6.43626 10.7373 6.20823C10.6926 5.9802 10.6029 5.76335 10.4735 5.57035C10.3441 5.37735 10.1776 5.21205 9.9836 5.0841C9.78962 4.95615 9.57211 4.86812 9.34375 4.82513C9.11539 4.78215 8.88075 4.78507 8.65353 4.83374C8.42631 4.8824 8.21106 4.97583 8.02033 5.10858C7.82961 5.24132 7.66723 5.41072 7.54267 5.60689C7.41811 5.80306 7.33387 6.02207 7.29486 6.25114L7.15606 6.98771L6.41949 6.84891Z" fill="#87CEA9"/>
</svg>
