<svg width="19" height="22" viewBox="0 0 19 22" fill="none" xmlns="http://www.w3.org/2000/svg">
<path d="M5.58219 1.27794C7.42314 0.657939 9.42678 0.728782 11.2194 1.47725C13.0119 2.22573 14.471 3.60072 15.3245 5.34575L18.5865 7.98131C18.8012 8.15488 18.8835 8.4933 18.6057 8.74305L17.0167 10.1626L17.952 12.9393C18.1214 13.4419 18.0841 13.9913 17.8484 14.4665C17.6127 14.9417 17.1978 15.3038 16.6951 15.4731L14.8007 16.1112L15.7575 18.9546L7.22838 21.8276L6.04915 18.3269C5.67246 17.2087 4.90269 16.2893 3.81424 15.5923C2.54566 14.7781 1.53291 13.6221 0.892687 12.2574C0.252464 10.8928 0.0108162 9.375 0.195586 7.879C0.380357 6.38299 0.984026 4.96962 1.93704 3.80174C2.89005 2.63386 4.15363 1.75899 5.58219 1.27794ZM6.91963 6.9086C6.50513 6.71178 6.0299 6.68564 5.5963 6.8358C5.16271 6.98597 4.80544 7.30043 4.60145 7.71146C4.39746 8.12248 4.36306 8.59719 4.50567 9.03332C4.64828 9.46946 4.95649 9.83214 5.36391 10.0432L9.17128 11.9327L11.0594 8.12468C11.1663 7.91831 11.2309 7.69274 11.2496 7.46112C11.2683 7.22951 11.2407 6.99648 11.1684 6.77564C11.0961 6.55481 10.9806 6.35059 10.8285 6.17489C10.6764 5.99919 10.4909 5.85555 10.2827 5.75233C10.0745 5.64911 9.84782 5.58838 9.61591 5.5737C9.384 5.55901 9.15149 5.59066 8.93194 5.6668C8.7124 5.74293 8.51021 5.86203 8.33719 6.01714C8.16416 6.17225 8.02376 6.36026 7.92417 6.57021L7.59109 7.24168L6.91963 6.9086Z" fill="#87CEA9"/>
</svg>
