<svg width="18" height="22" viewBox="0 0 18 22" fill="none" xmlns="http://www.w3.org/2000/svg">
<path d="M10.443 1.02129C12.3283 1.4893 13.9791 2.62714 15.0873 4.22258C16.1955 5.81802 16.6855 7.76211 16.4659 9.69221L17.7972 13.669C17.8847 13.9307 17.772 14.2603 17.4035 14.3213L15.3003 14.6628L14.5946 17.5066C14.4669 18.0214 14.1398 18.4644 13.6855 18.7381C13.2311 19.0117 12.6866 19.0937 12.1718 18.966L10.2316 18.4845L9.50809 21.3959L0.773044 19.2282L1.66277 15.643C1.94699 14.4977 1.79286 13.3086 1.25046 12.1354C0.619283 10.7665 0.387685 9.24719 0.582353 7.75244C0.77702 6.25769 1.39003 4.84835 2.35075 3.6868C3.31148 2.52525 4.58082 1.65877 6.01252 1.18718C7.44423 0.715588 8.98004 0.658085 10.443 1.02129ZM8.54054 6.48698C8.29706 6.09804 7.91056 5.82029 7.46429 5.71356C7.01801 5.60682 6.54767 5.67963 6.15456 5.91632C5.76145 6.153 5.47703 6.53462 5.36255 6.97897C5.24808 7.42332 5.31271 7.89486 5.54252 8.29202L7.73504 11.9333L11.3756 9.73958C11.5767 9.62312 11.7525 9.46777 11.8929 9.28261C12.0333 9.09745 12.1355 8.88619 12.1934 8.66114C12.2512 8.43609 12.2637 8.20177 12.2301 7.97184C12.1964 7.74192 12.1173 7.521 11.9974 7.32197C11.8774 7.12295 11.7191 6.9498 11.5315 6.81264C11.3439 6.67547 11.1309 6.57704 10.9049 6.52308C10.6789 6.46912 10.4444 6.46071 10.2151 6.49834C9.98576 6.53598 9.76625 6.61891 9.56933 6.74229L8.92728 7.12903L8.54054 6.48698Z" fill="#87CEA9"/>
</svg>
