<svg width="22" height="19" viewBox="0 0 22 19" fill="none" xmlns="http://www.w3.org/2000/svg">
<path d="M1.6276 5.15204C2.50848 3.42069 3.98908 2.06888 5.79324 1.34877C7.59739 0.628666 9.6019 0.589432 11.4328 1.23839L15.6073 0.837553C15.8821 0.811282 16.1778 0.995353 16.1542 1.36818L16.0129 3.49419L18.6244 4.82267C19.0972 5.06317 19.4551 5.48163 19.6193 5.98599C19.7835 6.49036 19.7407 7.03931 19.5002 7.51209L18.5939 9.2938L21.2673 10.6549L17.1867 18.6767L13.8942 17.0018C12.8425 16.4668 11.6492 16.3489 10.3839 16.613C8.90805 16.9194 7.3756 16.8026 5.96318 16.276C4.55076 15.7495 3.31584 14.8346 2.40071 13.6368C1.48557 12.439 0.92746 11.0071 0.790679 9.50592C0.653899 8.00476 0.944015 6.49551 1.6276 5.15204ZM6.52389 8.2374C6.09008 8.38696 5.73237 8.70092 5.5278 9.11165C5.32323 9.52239 5.28816 9.99704 5.43016 10.4334C5.57215 10.8697 5.87985 11.2328 6.28697 11.4445C6.69409 11.6562 7.16806 11.6995 7.6068 11.5651L11.6485 10.2497L10.3318 6.20836C10.2636 5.98621 10.1519 5.77985 10.0032 5.60133C9.8544 5.42281 9.67158 5.2757 9.46537 5.16859C9.25916 5.06147 9.03368 4.9965 8.80209 4.97746C8.5705 4.95842 8.33743 4.9857 8.11649 5.0577C7.89556 5.12969 7.69117 5.24497 7.51526 5.3968C7.33935 5.54863 7.19544 5.73398 7.09193 5.94202C6.98842 6.15006 6.92737 6.37664 6.91236 6.60853C6.89735 6.84041 6.92867 7.07297 7.00449 7.29262L7.23658 8.00532L6.52389 8.2374Z" fill="#87CEA9"/>
</svg>
