<svg width="19" height="22" viewBox="0 0 19 22" fill="none" xmlns="http://www.w3.org/2000/svg">
<path d="M9.54214 0.645841C11.4658 0.916228 13.2254 1.87714 14.4927 3.34933C15.7601 4.82152 16.4486 6.70447 16.43 8.64694L18.1657 12.4646C18.2799 12.7159 18.2019 13.0553 17.8416 13.1542L15.7851 13.7115L15.3774 16.613C15.3036 17.1382 15.0242 17.6127 14.6006 17.9319C14.177 18.2512 13.6439 18.3891 13.1186 18.3153L11.1391 18.0372L10.7207 21.0078L1.80823 19.7557L2.32216 16.0976C2.48633 14.9291 2.20998 13.7623 1.54909 12.6516C0.779641 11.3554 0.392059 9.86814 0.430998 8.36127C0.469936 6.8544 0.93381 5.38919 1.76917 4.13446C2.60454 2.87973 3.77739 1.88653 5.15261 1.26932C6.52783 0.652102 8.04944 0.435975 9.54214 0.645841ZM8.2155 6.27906C7.93308 5.9174 7.51992 5.68114 7.06499 5.62116C6.61007 5.56118 6.14978 5.68228 5.78328 5.95837C5.41677 6.23446 5.17337 6.64346 5.10549 7.09728C5.03761 7.55109 5.15069 8.01341 5.42037 8.38466L7.97793 11.7795L11.3719 9.22081C11.5599 9.08416 11.7187 8.91145 11.8392 8.71276C11.9597 8.51406 12.0394 8.29336 12.0737 8.06353C12.108 7.8337 12.0961 7.59935 12.0389 7.37414C11.9816 7.14893 11.8801 6.93738 11.7402 6.75184C11.6003 6.56629 11.4249 6.41046 11.2241 6.29345C11.0233 6.17643 10.8013 6.10057 10.5709 6.07029C10.3405 6.04 10.1064 6.05591 9.88221 6.11707C9.65803 6.17824 9.44828 6.28344 9.26519 6.42653L8.66661 6.87764L8.2155 6.27906Z" fill="#87CEA9"/>
</svg>
