<svg width="64" height="68" viewBox="0 0 64 68" fill="none" xmlns="http://www.w3.org/2000/svg">
<path d="M44.7917 8.33984C51.951 8.37784 55.8286 8.68501 58.3566 11.117C61.25 13.9005 61.25 18.3782 61.25 27.3335V46.3335C61.25 55.292 61.25 59.7697 58.3566 62.5532C55.4665 65.3335 50.8088 65.3335 41.5 65.3335H21.75C12.4412 65.3335 7.78346 65.3335 4.89337 62.5532C2 59.7665 2 55.292 2 46.3335V27.3335C2 18.3782 2 13.9005 4.89337 11.117C7.42137 8.68501 11.299 8.37784 18.4583 8.33984" stroke="#252B48" stroke-width="4"/>
<path d="M18.4587 39.9998H44.792M15.167 28.9165H48.0837M21.7503 51.0832H41.5003" stroke="#252B48" stroke-width="4" stroke-linecap="round"/>
<path d="M18.458 6.75C18.458 5.49022 18.9782 4.28204 19.9042 3.39124C20.8301 2.50045 22.086 2 23.3955 2H39.8538C41.1633 2 42.4192 2.50045 43.3452 3.39124C44.2711 4.28204 44.7913 5.49022 44.7913 6.75V9.91667C44.7913 11.1764 44.2711 12.3846 43.3452 13.2754C42.4192 14.1662 41.1633 14.6667 39.8538 14.6667H23.3955C22.086 14.6667 20.8301 14.1662 19.9042 13.2754C18.9782 12.3846 18.458 11.1764 18.458 9.91667V6.75Z" stroke="#252B48" stroke-width="4"/>
</svg>
