<svg width="60" height="57" viewBox="0 0 60 57" fill="none" xmlns="http://www.w3.org/2000/svg">
<path d="M51.6211 43.582C52.9102 44.207 54.0625 44.9883 55.0781 45.9258C56.0938 46.8633 56.9727 47.918 57.7148 49.0898C58.457 50.2617 59.0234 51.5117 59.4141 52.8398C59.8047 54.168 60 55.5547 60 57H56.25C56.25 55.457 55.957 54.002 55.3711 52.6348C54.7852 51.2676 53.9746 50.0762 52.9395 49.0605C51.9043 48.0449 50.7129 47.2441 49.3652 46.6582C48.0176 46.0723 46.5625 45.7695 45 45.75C43.457 45.75 42.002 46.043 40.6348 46.6289C39.2676 47.2148 38.0762 48.0254 37.0605 49.0605C36.0449 50.0957 35.2441 51.2871 34.6582 52.6348C34.0723 53.9824 33.7695 55.4375 33.75 57H30C30 55.5742 30.1953 54.1973 30.5859 52.8691C30.9766 51.541 31.5332 50.291 32.2559 49.1191C32.9785 47.9473 33.8574 46.8926 34.8926 45.9551C35.9277 45.0176 37.0898 44.2266 38.3789 43.582C36.9141 42.5273 35.7813 41.209 34.9805 39.627C34.1797 38.0449 33.7695 36.3359 33.75 34.5C33.75 32.957 34.043 31.502 34.6289 30.1348C35.2148 28.7676 36.0156 27.5762 37.0312 26.5605C38.0469 25.5449 39.2383 24.7344 40.6055 24.1289C41.9727 23.5234 43.4375 23.2305 45 23.25C46.543 23.25 47.998 23.543 49.3652 24.1289C50.7324 24.7148 51.9238 25.5156 52.9395 26.5312C53.9551 27.5469 54.7656 28.748 55.3711 30.1348C55.9766 31.5215 56.2695 32.9766 56.25 34.5C56.25 36.3164 55.8496 38.0156 55.0488 39.5977C54.248 41.1797 53.1055 42.5078 51.6211 43.582ZM45 42C46.0352 42 47.002 41.8047 47.9004 41.4141C48.7988 41.0234 49.5996 40.4863 50.3027 39.8027C51.0059 39.1191 51.543 38.3281 51.9141 37.4297C52.2852 36.5313 52.4805 35.5547 52.5 34.5C52.5 33.4648 52.3047 32.498 51.9141 31.5996C51.5234 30.7012 50.9863 29.9004 50.3027 29.1973C49.6191 28.4941 48.8281 27.957 47.9297 27.5859C47.0313 27.2148 46.0547 27.0195 45 27C43.9648 27 42.998 27.1953 42.0996 27.5859C41.2012 27.9766 40.4004 28.5137 39.6973 29.1973C38.9941 29.8809 38.457 30.6719 38.0859 31.5703C37.7148 32.4687 37.5195 33.4453 37.5 34.5C37.5 35.5352 37.6953 36.502 38.0859 37.4004C38.4766 38.2988 39.0137 39.0996 39.6973 39.8027C40.3809 40.5059 41.1719 41.043 42.0703 41.4141C42.9687 41.7852 43.9453 41.9805 45 42ZM60 0.75V30.75C60 29.8125 59.9121 28.9922 59.7363 28.2891C59.5605 27.5859 59.3164 26.9316 59.0039 26.3262C58.6914 25.7207 58.3008 25.1348 57.832 24.5684C57.3633 24.002 56.8359 23.3867 56.25 22.7227V4.5H3.75V38.25H11.25V46.0723L19.0723 38.25H30.498C30.6543 38.9141 30.8594 39.5586 31.1133 40.1836C31.3672 40.8086 31.6699 41.4141 32.0215 42H20.625L7.5 55.125V42H0V0.75H60Z" fill="#252B48"/>
</svg>
