<svg width="273" height="71" viewBox="0 0 273 71" fill="none" xmlns="http://www.w3.org/2000/svg">
<path d="M18.06 52.77C18.2467 52.77 18.34 53.9367 18.34 56.27C18.34 58.5567 18.2 59.7 17.92 59.7C11.1533 59.7 6.3 60.0267 3.36 60.68C3.22 60.68 3.15 59.6533 3.15 57.6C3.15 55.5467 3.31333 54.31 3.64 53.89C4.2 53.61 5.11 53.47 6.37 53.47C6.27667 51.8833 6.23 46.2367 6.23 36.53C6.23 26.7767 6.34667 21.2 6.58 19.8H6.44C5.18 19.8 4.13 19.94 3.29 20.22C3.19667 20.22 3.15 19.17 3.15 17.07C3.15 14.9233 3.29 13.71 3.57 13.43C3.85 13.15 5.71667 12.8933 9.17 12.66C12.6233 12.4267 15.5167 12.31 17.85 12.31C17.99 12.31 18.06 12.6833 18.06 13.43L17.85 18.61C17.85 18.7967 17.78 18.89 17.64 18.89C16.0533 18.89 15.2133 18.9367 15.12 19.03C15.0267 19.0767 14.9567 20.0333 14.91 21.9C14.7233 29.2733 14.63 35.6667 14.63 41.08C14.63 46.4467 14.8167 50.3667 15.19 52.84C15.7967 52.7933 16.7533 52.77 18.06 52.77ZM33.4348 43.25L33.5048 45.84V51.16C33.5048 56.1533 33.4115 58.7433 33.2248 58.93C32.6182 59.5367 31.5682 60.0033 30.0748 60.33C28.5815 60.6567 27.3448 60.82 26.3648 60.82C25.4315 60.82 24.9648 60.75 24.9648 60.61C25.2915 58.51 25.4548 55.0567 25.4548 50.25L25.2448 34.5C25.2448 31.6067 25.3615 30.0433 25.5948 29.81C26.1082 29.2967 26.9948 28.8533 28.2548 28.48C29.5148 28.06 30.6815 27.85 31.7548 27.85C32.8748 27.85 33.4348 27.9667 33.4348 28.2C33.2948 29.32 33.2248 30.44 33.2248 31.56C33.2248 32.68 33.2948 33.24 33.4348 33.24L33.6448 33.1C33.8782 32.7733 34.2282 32.3767 34.6948 31.91C35.1615 31.3967 36.1415 30.7433 37.6348 29.95C39.1748 29.11 40.6215 28.69 41.9748 28.69C43.3748 28.69 44.5415 28.9467 45.4748 29.46C46.4548 29.9267 47.2482 30.51 47.8548 31.21C48.4615 31.91 48.9748 32.9133 49.3948 34.22C49.8615 35.5267 50.2115 36.74 50.4448 37.86C50.6782 38.98 50.8648 40.4733 51.0048 42.34C51.1448 44.9067 51.2148 48.1733 51.2148 52.14L51.0048 60.33C51.0048 60.6567 50.2348 60.96 48.6948 61.24C47.1548 61.5667 45.9182 61.73 44.9848 61.73L42.6748 61.38C43.1415 57.18 43.3748 53.12 43.3748 49.2C43.3748 45.2333 43.1182 42.27 42.6048 40.31C42.0915 38.3033 41.0648 37.3 39.5248 37.3C37.9848 37.3 36.7248 37.72 35.7448 38.56C34.8115 39.4 34.2048 40.24 33.9248 41.08L33.4348 42.27V43.25ZM65.9739 43.25L66.0439 45.84V51.16C66.0439 56.1533 65.9506 58.7433 65.7639 58.93C65.1572 59.5367 64.1072 60.0033 62.6139 60.33C61.1206 60.6567 59.8839 60.82 58.9039 60.82C57.9706 60.82 57.5039 60.75 57.5039 60.61C57.8306 58.51 57.9939 55.0567 57.9939 50.25L57.7839 34.5C57.7839 31.6067 57.9006 30.0433 58.1339 29.81C58.6472 29.2967 59.5339 28.8533 60.7939 28.48C62.0539 28.06 63.2206 27.85 64.2939 27.85C65.4139 27.85 65.9739 27.9667 65.9739 28.2C65.8339 29.32 65.7639 30.44 65.7639 31.56C65.7639 32.68 65.8339 33.24 65.9739 33.24L66.1839 33.1C66.4172 32.7733 66.7672 32.3767 67.2339 31.91C67.7006 31.3967 68.6806 30.7433 70.1739 29.95C71.7139 29.11 73.1606 28.69 74.5139 28.69C75.9139 28.69 77.0806 28.9467 78.0139 29.46C78.9939 29.9267 79.7872 30.51 80.3939 31.21C81.0006 31.91 81.5139 32.9133 81.9339 34.22C82.4006 35.5267 82.7506 36.74 82.9839 37.86C83.2172 38.98 83.4039 40.4733 83.5439 42.34C83.6839 44.9067 83.7539 48.1733 83.7539 52.14L83.5439 60.33C83.5439 60.6567 82.7739 60.96 81.2339 61.24C79.6939 61.5667 78.4572 61.73 77.5239 61.73L75.2139 61.38C75.6806 57.18 75.9139 53.12 75.9139 49.2C75.9139 45.2333 75.6572 42.27 75.1439 40.31C74.6306 38.3033 73.6039 37.3 72.0639 37.3C70.5239 37.3 69.2639 37.72 68.2839 38.56C67.3506 39.4 66.7439 40.24 66.4639 41.08L65.9739 42.27V43.25ZM106.213 36.74C106.213 35.3867 105.49 34.71 104.043 34.71C102.13 34.71 100.45 35.69 99.003 37.65C97.5563 39.61 96.833 41.9667 96.833 44.72C96.833 45.3733 96.9263 45.7 97.113 45.7C98.793 45.6533 100.73 44.6967 102.923 42.83C105.116 40.9167 106.213 38.8867 106.213 36.74ZM112.303 59C110.716 60.0733 107.613 60.61 102.993 60.61C98.373 60.61 94.8263 59.2333 92.353 56.48C89.8796 53.7267 88.643 50.0633 88.643 45.49C88.643 40.87 90.113 36.88 93.053 33.52C96.0396 30.1133 100.216 28.41 105.583 28.41C107.776 28.41 109.783 28.9933 111.603 30.16C113.47 31.3267 114.403 33.38 114.403 36.32C114.403 39.2133 113.12 42.0833 110.553 44.93C108.033 47.7767 104.58 49.9467 100.193 51.44C100.193 52 100.753 52.4667 101.873 52.84C103.04 53.1667 104.183 53.33 105.303 53.33C108.85 53.33 111.65 52.7 113.703 51.44C113.75 51.3933 113.82 51.37 113.913 51.37C114.006 51.37 114.053 51.8133 114.053 52.7C114.053 55.4067 113.47 57.5067 112.303 59ZM119.783 49.55L119.643 33.66C119.643 30.9067 119.736 29.4367 119.923 29.25C120.436 28.7367 121.323 28.2933 122.583 27.92C123.843 27.5 125.009 27.29 126.083 27.29C127.203 27.29 127.763 27.4067 127.763 27.64C127.623 28.9 127.553 30.3467 127.553 31.98C127.553 33.5667 127.599 34.36 127.693 34.36C127.786 34.36 127.879 34.3133 127.973 34.22C128.066 34.08 128.206 33.8933 128.393 33.66C128.626 33.38 129.069 32.9133 129.723 32.26C130.423 31.6067 131.169 31.0467 131.963 30.58C133.969 29.2733 136.116 28.62 138.403 28.62C138.776 29.2267 138.963 30.16 138.963 31.42C138.963 34.08 138.636 35.97 137.983 37.09L137.703 37.65L136.793 37.51C133.433 37.51 130.796 38.8867 128.883 41.64C128.136 42.76 127.763 43.6 127.763 44.16V50.32C127.763 55.92 127.693 58.79 127.553 58.93C126.246 60.19 123.679 60.82 119.853 60.82C119.479 60.82 119.293 60.75 119.293 60.61C119.619 58.79 119.783 55.1033 119.783 49.55ZM151.746 61.1L151.956 41.85V40.94C150.65 39.12 148.316 35.2233 144.956 29.25C141.643 23.23 139.846 20.0333 139.566 19.66C138.493 18.5867 137.023 18.05 135.156 18.05C135.11 17.9567 135.086 17.7 135.086 17.28C135.086 16.86 135.226 16.2067 135.506 15.32C135.833 14.3867 136.043 13.8733 136.136 13.78C136.276 13.64 136.72 13.5 137.466 13.36C139.473 12.9867 141.503 12.8 143.556 12.8C145.61 12.8 146.683 12.8467 146.776 12.94C146.916 13.0333 147.57 14.3167 148.736 16.79C152.376 24.5367 155.06 29.7167 156.786 32.33H156.926C157.206 31.3033 159.19 27.5933 162.876 21.2C166.61 14.8067 168.78 11.61 169.386 11.61C170.786 11.61 172.186 11.7967 173.586 12.17C174.986 12.5433 176.083 12.9633 176.876 13.43C177.67 13.85 178.043 14.2 177.996 14.48C175.523 17.2333 172.233 21.6667 168.126 27.78C164.066 33.8467 161.663 38.2333 160.916 40.94C160.823 41.8733 160.776 44.8833 160.776 49.97C160.776 55.0567 160.963 58.3933 161.336 59.98C161.336 60.54 160.59 60.96 159.096 61.24C157.603 61.52 156.133 61.66 154.686 61.66C153.286 61.66 152.306 61.4733 151.746 61.1ZM210.198 44.44C210.198 48.8733 208.845 52.7233 206.138 55.99C203.478 59.21 199.838 60.82 195.218 60.82C190.645 60.82 187.051 59.3967 184.438 56.55C181.825 53.7033 180.518 50.0167 180.518 45.49C180.518 40.9167 182.128 36.88 185.348 33.38C188.615 29.8333 193.001 28.06 198.508 28.06C200.748 28.1533 201.961 28.2933 202.148 28.48C202.335 28.6667 202.428 29.11 202.428 29.81C202.428 30.51 202.358 31.28 202.218 32.12C202.918 32.12 203.805 32.54 204.878 33.38C205.998 34.1733 206.908 34.99 207.608 35.83C208.308 36.67 208.915 37.86 209.428 39.4C209.941 40.8933 210.198 42.5733 210.198 44.44ZM199.978 39.54C198.905 38.84 197.855 38.49 196.828 38.49H196.268C196.175 38.3033 196.128 37.9067 196.128 37.3C196.128 36.6933 196.198 36.11 196.338 35.55C194.425 35.55 192.628 36.4133 190.948 38.14C189.315 39.8667 188.498 42.27 188.498 45.35C188.498 48.99 189.665 51.51 191.998 52.91C192.885 53.47 194.098 53.75 195.638 53.75C197.225 53.75 198.695 53.0267 200.048 51.58C201.448 50.1333 202.148 47.9867 202.148 45.14C202.148 42.2933 201.425 40.4267 199.978 39.54ZM233.044 56.34L232.974 54.87L232.904 54.73C231.784 56.4567 230.361 57.8333 228.634 58.86C226.954 59.8867 225.298 60.4 223.664 60.4C218.764 60.4 215.964 56.5967 215.264 48.99C215.171 47.7767 215.124 44.65 215.124 39.61C215.124 34.57 215.334 31.5833 215.754 30.65C216.968 29.67 218.928 29.18 221.634 29.18C222.708 29.18 223.361 29.2967 223.594 29.53C223.594 29.5767 223.571 30.2067 223.524 31.42C223.291 34.9667 223.174 37.6967 223.174 39.61C223.174 41.5233 223.198 42.9467 223.244 43.88C223.291 44.7667 223.314 45.35 223.314 45.63C223.361 45.8633 223.431 46.3067 223.524 46.96C223.664 47.6133 223.851 48.1733 224.084 48.64C224.784 49.9933 225.858 50.67 227.304 50.67C228.798 50.67 230.104 49.9467 231.224 48.5C232.391 47.0067 232.951 45.9567 232.904 45.35V42.97C232.904 34.43 233.044 29.8333 233.324 29.18C233.558 28.76 234.281 28.3167 235.494 27.85C236.754 27.3833 237.991 27.15 239.204 27.15C240.418 27.15 241.118 27.2433 241.304 27.43L241.164 30.72C240.884 37.3933 240.744 42.55 240.744 46.19C240.744 49.83 240.838 52.14 241.024 53.12C241.351 55.4533 241.981 57.32 242.914 58.72C242.914 59.1867 241.958 59.9333 240.044 60.96C238.131 61.9867 236.498 62.5 235.144 62.5C234.771 62.5 234.351 61.8 233.884 60.4C233.418 59 233.138 57.6467 233.044 56.34Z" fill="#F9EAF7"/>
</svg>
