<svg width="91" height="102" viewBox="0 0 91 102" fill="none" xmlns="http://www.w3.org/2000/svg">
<g filter="url(#filter0_d_14_638)">
<path d="M78.3046 42.9123C76.9742 41.3789 75.3545 40.05 73.8504 38.7211C69.9747 35.6543 65.5784 33.4565 61.8762 30.2364C53.2571 22.774 51.3481 10.4558 56.8436 1C51.3481 2.17559 46.5469 4.83345 42.4398 7.74686C27.4575 18.3783 21.5572 37.1366 28.6144 53.237C28.8458 53.7482 29.0772 54.2593 29.0772 54.9238C29.0772 56.0482 28.2095 57.0705 27.0526 57.4794C25.7221 57.9905 24.3338 57.6838 23.2347 56.866C22.9044 56.6248 22.6295 56.3298 22.4249 55.9971C15.8882 48.688 14.847 38.2099 19.2433 29.8275C9.58293 36.7788 4.3189 48.5347 5.0709 59.6261C5.41798 62.1817 5.76506 64.7374 6.74845 67.293C7.5583 70.3598 9.12016 73.4265 10.8556 76.1355C17.103 84.9779 27.9203 91.3159 39.5474 92.5937C51.9266 93.9738 65.1735 91.9804 74.6603 84.4157C85.2462 75.931 88.9484 62.3351 83.5108 50.6814L82.7588 49.3525C81.544 47.0013 78.3046 42.9123 78.3046 42.9123ZM60.0251 75.1132C58.4054 76.3399 55.7445 77.6689 53.662 78.18C47.1832 80.2245 40.7044 77.3622 36.8865 73.9888C43.7702 72.5576 47.8773 68.0597 49.0921 63.5107C50.0755 59.4217 48.2244 56.0482 47.4724 52.1126C46.7783 48.3302 46.894 45.1101 48.4558 41.5834C49.5549 43.5257 50.7118 45.4679 52.1001 47.0013C56.5543 52.1126 63.5538 54.3615 65.0578 61.3128C65.2892 62.0284 65.4049 62.744 65.4049 63.5107C65.5784 67.7019 63.4959 72.302 60.0251 75.1132Z" fill="#64CCC5"/>
<path d="M78.3046 42.9123C76.9742 41.3789 75.3545 40.05 73.8504 38.7211C69.9747 35.6543 65.5784 33.4565 61.8762 30.2364C53.2571 22.774 51.3481 10.4558 56.8436 1C51.3481 2.17559 46.5469 4.83345 42.4398 7.74686C27.4575 18.3783 21.5572 37.1366 28.6144 53.237C28.8458 53.7482 29.0772 54.2593 29.0772 54.9238C29.0772 56.0482 28.2095 57.0705 27.0526 57.4794C25.7221 57.9905 24.3338 57.6838 23.2347 56.866C22.9044 56.6248 22.6295 56.3298 22.4249 55.9971C15.8882 48.688 14.847 38.2099 19.2433 29.8275C9.58293 36.7788 4.3189 48.5347 5.0709 59.6261C5.41798 62.1817 5.76506 64.7374 6.74845 67.293C7.5583 70.3598 9.12016 73.4265 10.8556 76.1355C17.103 84.9779 27.9203 91.3159 39.5474 92.5937C51.9266 93.9738 65.1735 91.9804 74.6603 84.4157C85.2462 75.931 88.9484 62.3351 83.5108 50.6814L82.7588 49.3525C81.544 47.0013 78.3046 42.9123 78.3046 42.9123ZM60.0251 75.1132C58.4054 76.3399 55.7445 77.6689 53.662 78.18C47.1832 80.2245 40.7044 77.3622 36.8865 73.9888C43.7702 72.5576 47.8773 68.0597 49.0921 63.5107C50.0755 59.4217 48.2244 56.0482 47.4724 52.1126C46.7783 48.3302 46.894 45.1101 48.4558 41.5834C49.5549 43.5257 50.7118 45.4679 52.1001 47.0013C56.5543 52.1126 63.5538 54.3615 65.0578 61.3128C65.2892 62.0284 65.4049 62.744 65.4049 63.5107C65.5784 67.7019 63.4959 72.302 60.0251 75.1132Z" stroke="black" stroke-width="0.5" stroke-dasharray="1 1"/>
</g>
<defs>
<filter id="filter0_d_14_638" x="0.75" y="0.637207" width="89.5" height="100.611" filterUnits="userSpaceOnUse" color-interpolation-filters="sRGB">
<feFlood flood-opacity="0" result="BackgroundImageFix"/>
<feColorMatrix in="SourceAlpha" type="matrix" values="0 0 0 0 0 0 0 0 0 0 0 0 0 0 0 0 0 0 127 0" result="hardAlpha"/>
<feOffset dy="4"/>
<feGaussianBlur stdDeviation="2"/>
<feComposite in2="hardAlpha" operator="out"/>
<feColorMatrix type="matrix" values="0 0 0 0 0 0 0 0 0 0 0 0 0 0 0 0 0 0 0.25 0"/>
<feBlend mode="normal" in2="BackgroundImageFix" result="effect1_dropShadow_14_638"/>
<feBlend mode="normal" in="SourceGraphic" in2="effect1_dropShadow_14_638" result="shape"/>
</filter>
</defs>
</svg>
